<svg xmlns="http://www.w3.org/2000/svg" width="713.925" height="236.404" viewBox="0 0 188.893 62.549"><defs><clipPath id="a" clipPathUnits="userSpaceOnUse"><path d="M0 792h612V0H0Z"/></clipPath></defs><g clip-path="url(#a)" transform="matrix(.35278 0 0 -.35278 -15.428 206.627)"><path d="M43.732 412.888v168.826h103.267v-37.088H88.538v-29.262h55.116v-36.137H88.538v-66.339zM296.715 575.086v-50.291c-6.302 6.997-12.582 12.139-18.824 15.388-6.247 3.28-12.957 4.915-20.089 4.915-13.212 0-23.867-4.504-32.066-13.527-8.168-9.047-12.236-20.802-12.236-35.307 0-13.534 4.164-24.761 12.486-33.649 8.325-8.923 18.92-13.37 31.816-13.37 7.132 0 13.842 1.639 20.089 4.891 6.242 3.241 12.522 8.38 18.824 15.416v-50.291c-7.286-3.536-14.54-6.217-21.755-7.984a91.699 91.699 0 0 0-21.855-2.645c-9.205 0-17.689 1.106-25.479 3.277-7.788 2.209-14.944 5.518-21.472 10.001-12.55 8.447-22.136 19.079-28.759 31.903-6.589 12.838-9.865 27.311-9.865 43.355 0 12.898 2.077 24.658 6.242 35.22 4.194 10.568 10.502 20.157 18.95 28.764 7.974 8.232 16.963 14.381 26.958 18.449 10.029 4.064 21.16 6.114 33.425 6.114 7.38 0 14.665-.883 21.855-2.646 7.215-1.766 14.469-4.451 21.755-7.983M328.778 412.888l63.346 129.376H320.99v37.776h128.713v-8.071l-73.375-159.081ZM579.176 494.366c0-26.736-5.65-47.738-16.97-63.03-11.316-15.292-26.893-22.924-46.688-22.924-19.807 0-35.386 7.756-46.795 23.324-11.387 15.559-17.097 36.965-17.097 64.241 0 27.204 5.71 48.557 17.097 64.101 11.409 15.515 26.988 23.268 46.795 23.268 20.112 0 35.752-7.791 46.916-23.332 11.16-15.576 16.742-37.422 16.742-65.648m-85.104 1.639c0-18.445 1.699-31.911 5.139-40.39 3.405-8.518 8.859-12.746 16.307-12.746 7.309 0 12.671 4.263 16.108 12.775 3.407 8.546 5.103 21.98 5.103 40.361 0 18.189-1.696 31.595-5.103 40.198-3.437 8.614-8.799 12.905-16.108 12.905-7.543 0-12.995-4.195-16.377-12.618-3.37-8.423-5.069-21.913-5.069-40.485" style="fill:#231f20;fill-opacity:1;fill-rule:nonzero;stroke:none"/></g></svg>